<svg xmlns="http://www.w3.org/2000/svg" viewBox="0 0 400 400" fill="none">
  <rect width="400" height="400" rx="24" fill="#fff8f2"/>
  <rect x="16" y="16" width="368" height="368" rx="16" stroke="#ffc300" stroke-width="3" fill="none" opacity="0.5"/>
  <path d="M60 200 Q200 170 340 200" stroke="#6b5b5b" stroke-width="3" fill="none"/>
  <rect x="70" y="188" width="12" height="28" rx="3" fill="#d62828" transform="rotate(-15 76 202)"/>
  <rect x="95" y="182" width="12" height="28" rx="3" fill="#ef233c" transform="rotate(-8 101 196)"/>
  <rect x="120" y="178" width="12" height="28" rx="3" fill="#d62828" transform="rotate(-3 126 192)"/>
  <rect x="145" y="176" width="12" height="28" rx="3" fill="#f77f00"/>
  <rect x="170" y="175" width="12" height="28" rx="3" fill="#ef233c"/>
  <rect x="195" y="175" width="12" height="28" rx="3" fill="#d62828"/>
  <rect x="220" y="176" width="12" height="28" rx="3" fill="#f77f00"/>
  <rect x="245" y="178" width="12" height="28" rx="3" fill="#ef233c"/>
  <rect x="270" y="182" width="12" height="28" rx="3" fill="#d62828" transform="rotate(8 276 196)"/>
  <rect x="295" y="188" width="12" height="28" rx="3" fill="#ef233c" transform="rotate(15 301 202)"/>
  <rect x="320" y="195" width="12" height="28" rx="3" fill="#d62828" transform="rotate(20 326 209)"/>
  <circle cx="200" cy="250" r="30" fill="#ffd60a" opacity="0.25"/>
  <path d="M185 250 L200 220 L215 250 L200 280 Z" fill="#ffb703" opacity="0.6"/>
  <text x="200" y="365" text-anchor="middle" font-family="system-ui,sans-serif" font-size="22" font-weight="700" fill="#9d0208">WALA</text>
</svg>
